<svg width="48" height="49" viewBox="0 0 48 49" fill="none" xmlns="http://www.w3.org/2000/svg">
<g clip-path="url(#clip0_6_955)">
<g clip-path="url(#clip1_6_955)">
<path d="M0 24.3154C0 11.0605 10.7451 0.31543 24 0.31543C37.2549 0.31543 48 11.0605 48 24.3154C48 37.5703 37.2549 48.3154 24 48.3154C10.7451 48.3154 0 37.5703 0 24.3154ZM24 46.5099C36.2577 46.5099 46.1945 36.5731 46.1945 24.3154C46.1945 12.0577 36.2577 2.12089 24 2.12089C11.7423 2.12089 1.80546 12.0577 1.80546 24.3154C1.80546 36.5731 11.7423 46.5099 24 46.5099Z" fill="white"/>
<g clip-path="url(#clip2_6_955)">
<g clip-path="url(#clip3_6_955)">
<path d="M32.1367 34.1626C31.9915 35.5974 30.8386 36.628 29.5604 36.4648L18.6839 35.0732C17.4066 34.9091 16.489 33.6142 16.6343 32.1794L18.5352 13.4329C18.6814 11.9982 19.8339 10.9678 21.1124 11.1313L31.9886 12.5226C33.2666 12.6864 34.1838 13.9816 34.038 15.4164L32.1367 34.1626Z" fill="white"/>
<path d="M17.2991 35.9951C16.0218 35.8316 15.1039 34.5361 15.2491 33.1013L17.1504 14.3551C17.183 14.0307 17.2713 13.7143 17.4115 13.4199H16.2753C14.9892 13.4199 13.9473 14.5904 13.9473 16.0346V34.9011C13.9473 36.3457 14.9892 37.5162 16.2753 37.5162H27.2224C27.4952 37.5162 27.7557 37.4604 27.9995 37.3637L17.2991 35.9951Z" fill="white"/>
</g>
</g>
</g>
</g>
<defs>
<clipPath id="clip0_6_955">
<rect width="48" height="48" fill="white" transform="translate(0 0.31543)"/>
</clipPath>
<clipPath id="clip1_6_955">
<rect width="48" height="48" fill="white" transform="translate(0 0.31543)"/>
</clipPath>
<clipPath id="clip2_6_955">
<rect width="20.1061" height="26.402" fill="white" transform="translate(13.9473 11.1143)"/>
</clipPath>
<clipPath id="clip3_6_955">
<rect width="20.1061" height="26.402" fill="white" transform="translate(13.9473 11.1143)"/>
</clipPath>
</defs>
</svg>
