<svg width="121" height="24" viewBox="0 0 121 24" fill="none" xmlns="http://www.w3.org/2000/svg">
<g clip-path="url(#clip0_6_505)">
<g clip-path="url(#clip1_6_505)">
<g clip-path="url(#clip2_6_505)">
<g clip-path="url(#clip3_6_505)">
<path d="M7.43676 23.6072C6.04549 23.6072 4.82666 23.2499 3.78026 22.5352C2.72995 21.8206 1.92066 20.8045 1.3524 19.4869C0.784133 18.1692 0.5 16.606 0.5 14.797C0.5 13.0774 0.744942 11.4248 1.23483 9.83922C1.72471 8.25361 2.43014 6.8355 3.35112 5.58488C4.27211 4.33426 5.37924 3.34047 6.67254 2.60349C7.96583 1.86652 9.42569 1.49804 11.0521 1.49804C12.267 1.49804 13.2664 1.71019 14.0502 2.13451C14.834 2.55883 15.2259 3.18414 15.2259 4.01044C15.2259 4.41243 15.1338 4.80771 14.9496 5.1963C14.7615 5.58935 14.5205 5.91987 14.2265 6.18786C13.9326 6.45585 13.6289 6.58984 13.3154 6.58984C13.1194 6.58984 12.9626 6.53401 12.8451 6.42235C12.316 6.02036 11.7967 5.72334 11.2872 5.53128C10.7778 5.34369 10.1899 5.24989 9.52366 5.24989C8.13239 5.24989 6.95667 5.61168 5.9965 6.33525C5.03633 7.06329 4.30738 8.01912 3.80966 9.20274C3.30801 10.3864 3.05719 11.6705 3.05719 13.0551C3.05719 14.395 3.28254 15.5787 3.73323 16.606C4.18393 17.6333 4.81098 18.4372 5.61439 19.0179C6.4178 19.5985 7.35838 19.8888 8.43612 19.8888C9.29832 19.8888 10.137 19.6923 10.9522 19.2993C11.7634 18.9107 12.4826 18.3702 13.1096 17.6779C13.3839 17.3876 13.6583 17.2424 13.9326 17.2424C14.1678 17.2424 14.3343 17.3541 14.4323 17.5774C14.5303 17.8007 14.5793 18.0241 14.5793 18.2474C14.5793 18.6271 14.4813 19.0558 14.2853 19.5337C14.0894 20.0161 13.7857 20.4918 13.3742 20.9608C12.6491 21.7871 11.7575 22.4347 10.6994 22.9037C9.64124 23.3727 8.55369 23.6072 7.43676 23.6072ZM20.6048 23.6072C19.4291 23.6072 18.4827 23.1873 17.7655 22.3476C17.0522 21.5124 16.6956 20.3132 16.6956 18.7499C16.6956 17.6333 16.8856 16.5211 17.2658 15.4134C17.6499 14.3102 18.2044 13.3119 18.9294 12.4186C19.6545 11.5253 20.5265 10.8107 21.5454 10.2747C22.5644 9.73872 23.7107 9.47073 24.9844 9.47073C26.1601 9.47073 27.1634 9.69852 27.9942 10.1541C28.829 10.6142 29.2464 11.235 29.2464 12.0166C29.2464 12.2176 29.2268 12.4789 29.1876 12.8005C29.1484 13.1266 29.0994 13.3901 29.0406 13.5911C28.9819 13.7697 28.8976 13.9305 28.7879 14.0735C28.682 14.2209 28.541 14.2945 28.3646 14.2945C28.2862 14.2945 28.1393 14.2611 27.9237 14.1941C27.8453 14.663 27.7865 15.1209 27.7473 15.5675C27.7082 16.0141 27.6886 16.4608 27.6886 16.9074C27.6886 17.7561 27.8003 18.5087 28.0236 19.1653C28.2509 19.8263 28.6977 20.235 29.364 20.3913C29.5403 20.436 29.6814 20.503 29.7872 20.5923C29.897 20.6816 29.9518 20.8715 29.9518 21.1618C29.9518 21.4074 29.897 21.7201 29.7872 22.0998C29.6814 22.4794 29.4757 22.8189 29.17 23.1181C28.8682 23.4218 28.4332 23.5737 27.8649 23.5737C27.1007 23.5737 26.5128 23.2543 26.1013 22.6156C25.6898 21.9814 25.4841 21.0725 25.4841 19.8888C24.955 20.9831 24.2829 21.8764 23.4677 22.5687C22.6565 23.261 21.7022 23.6072 20.6048 23.6072ZM21.5454 20.1233C22.3292 20.1233 23.019 19.8442 23.6147 19.2859C24.2143 18.7275 24.6807 18.0241 25.0138 17.1754C25.2293 16.6395 25.3959 16.0521 25.5135 15.4134C25.631 14.7792 25.7094 14.1494 25.7486 13.5241C25.4155 13.3454 25.0334 13.2003 24.6023 13.0886C24.1712 12.9769 23.7205 12.9211 23.2502 12.9211C22.0549 12.9211 21.0692 13.3231 20.2933 14.1271C19.5212 14.931 19.1352 15.936 19.1352 17.1419C19.1352 18.0352 19.3507 18.7543 19.7818 19.2993C20.2129 19.8486 20.8008 20.1233 21.5454 20.1233ZM33.5378 23.5402C33.2243 23.5402 32.9734 23.4799 32.7853 23.3593C32.6011 23.2342 32.5365 23.0265 32.5913 22.7362C32.8108 21.7759 32.993 20.7978 33.138 19.8017C33.287 18.8102 33.3614 17.8566 33.3614 16.9409C33.3614 15.7573 33.2968 14.8908 33.1674 14.3414C33.042 13.7965 32.8715 13.4169 32.656 13.2025C32.4404 12.9926 32.1739 12.8318 31.8565 12.7201C31.7232 12.6531 31.6018 12.5638 31.492 12.4521C31.3862 12.3405 31.3333 12.1841 31.3333 11.9831C31.3333 11.6705 31.4411 11.3243 31.6566 10.9447C31.8722 10.565 32.1759 10.2345 32.5678 9.95311C32.9597 9.67619 33.4084 9.53773 33.914 9.53773C34.5842 9.53773 35.0505 9.79902 35.3131 10.3216C35.5796 10.8486 35.7129 11.5365 35.7129 12.3851C36.0656 11.4918 36.5006 10.7816 37.0179 10.2546C37.5392 9.73202 38.1917 9.47073 38.9755 9.47073C39.5046 9.47073 39.9455 9.60473 40.2982 9.87272C40.647 10.1407 40.8214 10.5762 40.8214 11.1792C40.8214 11.7821 40.6509 12.3449 40.3099 12.8675C39.9651 13.3945 39.6182 13.6581 39.2694 13.6581C39.2106 13.6581 39.1401 13.6469 39.0578 13.6246C38.9833 13.6022 38.9167 13.5464 38.8579 13.4571C38.5993 13.0998 38.2857 12.9211 37.9173 12.9211C37.3491 12.9211 36.8474 13.3454 36.4124 14.1941C35.9852 15.0427 35.7521 16.2151 35.7129 17.7114C35.7325 18.2697 35.7462 18.8392 35.754 19.4199C35.7658 20.0005 35.7716 20.4248 35.7716 20.6928C35.7716 21.5191 35.5698 22.2002 35.1661 22.7362C34.7664 23.2722 34.2236 23.5402 33.5378 23.5402ZM45.7006 23.6072C44.5249 23.6072 43.6 23.1605 42.9259 22.2672C42.2479 21.3739 41.9089 20.1568 41.9089 18.6159C41.9089 17.4769 42.0716 16.3603 42.3968 15.266C42.7182 14.1717 43.1728 13.1891 43.7607 12.3181C44.3485 11.4472 45.0344 10.7549 45.8182 10.2412C46.602 9.72756 47.4544 9.47073 48.3754 9.47073C48.9632 9.47073 49.4884 9.57123 49.9508 9.77222C50.4094 9.97321 50.815 10.23 51.1677 10.5427C51.1481 9.02408 51.0795 7.6618 50.962 6.45585C50.8444 5.24989 50.5603 4.13327 50.1096 3.10597C50.0312 2.92731 49.9685 2.76429 49.9215 2.61689C49.8705 2.47397 49.845 2.3355 49.845 2.20151C49.845 1.88885 49.9587 1.59853 50.186 1.33054C50.4094 1.06255 50.6876 0.839229 51.0208 0.660569C51.3539 0.481909 51.6674 0.392578 51.9613 0.392578C52.4904 0.392578 52.8882 0.653867 53.1547 1.17645C53.4173 1.70349 53.5877 2.41813 53.6661 3.32037C53.7445 4.22707 53.7837 5.26106 53.7837 6.42235C53.7837 8.11962 53.7151 9.64939 53.5779 11.0117C53.4408 12.374 53.3134 13.5687 53.1958 14.596C53.1175 15.266 53.0489 15.8467 52.9901 16.338C52.9313 16.8293 52.9019 17.2313 52.9019 17.5439C52.9019 19.1295 53.4996 20.0675 54.6949 20.3578C55.0084 20.4248 55.1652 20.6593 55.1652 21.0613C55.1652 21.3069 55.1025 21.6196 54.9771 21.9993C54.8477 22.3789 54.6165 22.7184 54.2834 23.0176C53.9503 23.3213 53.4702 23.4732 52.8431 23.4732C52.0005 23.4732 51.4323 23.1494 51.1383 22.5017C50.8444 21.8541 50.6974 20.8715 50.6974 19.5539C50.1488 20.6928 49.4531 21.6531 48.6105 22.4347C47.7679 23.2164 46.798 23.6072 45.7006 23.6072ZM46.6118 20.0228C47.1605 20.0228 47.7091 19.8218 48.2578 19.4199C48.8065 19.0179 49.2964 18.4707 49.7275 17.7784C49.9822 17.3541 50.2134 16.8673 50.4211 16.3179C50.6249 15.773 50.815 15.2213 50.9914 14.663C49.992 13.6357 48.8849 13.1221 47.6699 13.1221C46.6118 13.1221 45.7692 13.4839 45.1421 14.2075C44.5151 14.9355 44.2016 15.8355 44.2016 16.9074C44.2016 17.8231 44.4367 18.5712 44.907 19.1519C45.3773 19.7325 45.9456 20.0228 46.6118 20.0228ZM59.2508 23.5067C59.0157 23.5067 58.7766 23.462 58.5336 23.3727C58.2867 23.2834 58.0849 23.0712 57.9281 22.7362C57.7714 22.4012 57.693 21.8876 57.693 21.1953C57.693 20.637 57.738 19.9268 57.8282 19.0648C57.9144 18.2072 58.0261 17.2871 58.1633 16.3045C58.3004 15.2995 58.4141 14.2387 58.5042 13.1221C58.5904 12.0055 58.6335 10.8777 58.6335 9.73872C58.6335 9.29207 58.6238 8.81192 58.6042 8.29828C58.5846 7.78463 58.5454 7.28215 58.4866 6.79083C58.3494 6.88016 58.2181 6.95163 58.0927 7.00523C57.9634 7.06329 57.8399 7.09232 57.7224 7.09232C57.3892 7.09232 57.2227 6.72384 57.2227 5.98687C57.2227 5.31689 57.3559 4.75188 57.6224 4.29183C57.885 3.83625 58.369 3.3963 59.0744 2.97198C59.7603 2.54766 60.5696 2.19481 61.5023 1.91342C62.4311 1.6365 63.3756 1.49804 64.3358 1.49804C66.2365 1.49804 67.7611 2.06751 68.9094 3.20647C70.0537 4.34543 70.6259 5.86404 70.6259 7.7623C70.6259 8.92359 70.4202 9.99555 70.0087 10.9782C69.5972 11.9608 69.0544 12.8139 68.3803 13.5375C67.7023 14.2655 66.9675 14.8238 66.1758 15.2124C65.3802 15.6055 64.6003 15.802 63.8361 15.802C63.1111 15.802 62.6212 15.6166 62.3665 15.2459C62.1117 14.8797 61.9844 14.3504 61.9844 13.6581C61.9844 13.3231 62.0196 13.0149 62.0902 12.7335C62.1568 12.4566 62.3077 12.3181 62.5428 12.3181C62.6016 12.3181 62.6898 12.3293 62.8074 12.3516C62.9249 12.374 63.0425 12.4075 63.1601 12.4521C63.2776 12.4745 63.4442 12.5079 63.6598 12.5526C63.8753 12.5973 64.1203 12.6196 64.3946 12.6196C65.4723 12.6196 66.3502 12.2735 67.0282 11.5812C67.7023 10.8888 68.0393 9.99555 68.0393 8.90125C68.0393 7.7623 67.667 6.869 66.9224 6.22136C66.1778 5.57371 65.2176 5.24989 64.0419 5.24989C63.6108 5.24989 63.1699 5.28786 62.7192 5.36379C62.2685 5.44419 61.8178 5.55138 61.3671 5.68538C61.3083 7.15932 61.1711 8.83426 60.9556 10.7102C60.838 11.8268 60.7342 12.9256 60.644 14.0065C60.5578 15.0918 60.5147 16.0811 60.5147 16.9744C60.5147 17.7561 60.5794 18.4417 60.7087 19.0313C60.8341 19.6253 61.0928 20.1345 61.4847 20.5588C61.759 20.8715 61.8962 21.2065 61.8962 21.5638C61.8962 22.0551 61.6512 22.5017 61.1614 22.9037C60.6715 23.3057 60.0346 23.5067 59.2508 23.5067ZM76.8866 23.6072C75.3974 23.6072 74.2354 23.1203 73.4006 22.1467C72.5698 21.1774 72.1544 19.8218 72.1544 18.0799C72.1544 16.4943 72.4581 15.0539 73.0655 13.7586C73.673 12.4633 74.4901 11.4293 75.5169 10.6566C76.5476 9.88835 77.6802 9.50423 78.9147 9.50423C80.0905 9.50423 81.031 9.83252 81.7365 10.4891C82.4419 11.1501 82.7946 12.0278 82.7946 13.1221C82.7946 13.9931 82.5595 14.797 82.0892 15.534C81.6189 16.271 80.9919 16.8561 80.208 17.2893C79.4242 17.7271 78.5522 17.9459 77.5921 17.9459C76.4163 17.9459 75.4562 17.6444 74.7115 17.0414C74.7311 18.0687 75.0388 18.895 75.6345 19.5203C76.2341 20.1457 77.0042 20.4583 77.9448 20.4583C78.513 20.4583 79.095 20.34 79.6907 20.1032C80.2903 19.871 80.8057 19.5538 81.2368 19.1519C81.5111 18.8839 81.7659 18.7499 82.001 18.7499C82.197 18.7499 82.3577 18.8213 82.4831 18.9643C82.6124 19.1117 82.6771 19.297 82.6771 19.5203C82.6771 20.0117 82.3047 20.6593 81.5601 21.4633C80.2472 22.8926 78.6894 23.6072 76.8866 23.6072ZM77.3275 15.735C78.033 15.735 78.6208 15.5675 79.0911 15.2325C79.5614 14.8975 79.7965 14.4732 79.7965 13.9596C79.7965 13.5352 79.6398 13.2047 79.3262 12.968C79.0127 12.7357 78.5816 12.6196 78.033 12.6196C77.3079 12.6196 76.675 12.8362 76.1342 13.2695C75.5973 13.7072 75.2112 14.3169 74.9761 15.0985C75.2504 15.2995 75.6031 15.4558 76.0342 15.5675C76.4653 15.6792 76.8964 15.735 77.3275 15.735ZM86.8215 23.5402C86.504 23.5402 86.2532 23.4799 86.069 23.3593C85.8848 23.2342 85.8221 23.0265 85.8809 22.7362C86.0925 21.7759 86.2728 20.7978 86.4217 19.8017C86.5667 18.8102 86.6392 17.8566 86.6392 16.9409C86.6392 15.7573 86.5765 14.8908 86.4511 14.3414C86.3218 13.7965 86.1513 13.4169 85.9397 13.2025C85.7202 12.9926 85.4557 12.8318 85.1461 12.7201C85.005 12.6531 84.8815 12.5638 84.7757 12.4521C84.6699 12.3405 84.617 12.1841 84.617 11.9831C84.617 11.6705 84.7228 11.3243 84.9344 10.9447C85.1539 10.565 85.4596 10.2345 85.8515 9.95311C86.2434 9.67619 86.6941 9.53773 87.2036 9.53773C87.8698 9.53773 88.3342 9.79902 88.5968 10.3216C88.8594 10.8486 88.9907 11.5365 88.9907 12.3851C89.3473 11.4918 89.7843 10.7816 90.3016 10.2546C90.8228 9.73202 91.4754 9.47073 92.2592 9.47073C92.7883 9.47073 93.2292 9.60473 93.5819 9.87272C93.9346 10.1407 94.111 10.5762 94.111 11.1792C94.111 11.7821 93.9385 12.3449 93.5936 12.8675C93.2527 13.3945 92.9058 13.6581 92.5531 13.6581C92.4943 13.6581 92.4258 13.6469 92.3474 13.6246C92.2651 13.6022 92.1945 13.5464 92.1357 13.4571C91.8849 13.0998 91.5714 12.9211 91.1952 12.9211C90.6308 12.9211 90.1331 13.3454 89.702 14.1941C89.267 15.0427 89.0299 16.2151 88.9907 17.7114C89.0142 18.2697 89.0299 18.8392 89.0377 19.4199C89.0455 20.0005 89.0495 20.4248 89.0495 20.6928C89.0495 21.5191 88.8496 22.2002 88.4499 22.7362C88.0501 23.2722 87.5073 23.5402 86.8215 23.5402ZM96.4271 23.5402C96.2116 23.5402 96.0058 23.4687 95.8099 23.3258C95.6139 23.1784 95.5355 22.9819 95.5747 22.7362C95.8687 20.9496 96.1195 19.134 96.3272 17.2893C96.531 15.4491 96.6329 13.5911 96.6329 11.7151C96.6329 10.0625 96.5839 8.56627 96.4859 7.22632C96.3879 5.88637 96.0744 4.60225 95.5453 3.37397C95.4473 3.12831 95.369 2.91615 95.3102 2.73749C95.2514 2.55883 95.222 2.39134 95.222 2.23501C95.222 1.81069 95.4376 1.39754 95.8687 0.995556C96.2997 0.593571 96.7602 0.392578 97.2501 0.392578C97.9556 0.392578 98.4356 0.883893 98.6904 1.86652C98.9451 2.84915 99.0725 4.30076 99.0725 6.22136C99.0725 8.5216 98.9549 10.5271 98.7198 12.2377C98.4846 13.9439 98.2789 15.2437 98.1025 16.137L98.2201 16.204C98.612 15.1097 99.1117 14.0534 99.7191 13.035C100.327 12.0211 101.028 11.1792 101.824 10.5092C102.615 9.83922 103.481 9.50423 104.422 9.50423C105.343 9.50423 106.054 9.81689 106.556 10.4422C107.054 11.0675 107.303 11.8156 107.303 12.6866C107.303 13.7139 106.979 14.6295 106.333 15.4335C105.686 16.2375 104.843 16.9074 103.805 17.4434C104.06 18.2027 104.422 18.799 104.892 19.2323C105.363 19.67 105.96 19.8888 106.685 19.8888C106.92 19.8888 107.116 19.8665 107.273 19.8218C107.528 19.7548 107.655 20.034 107.655 20.6593C107.655 21.0166 107.596 21.4186 107.479 21.8653C107.361 22.3119 107.132 22.696 106.791 23.0176C106.446 23.3437 105.931 23.5067 105.245 23.5067C104.324 23.5067 103.576 23.1985 102.999 22.5821C102.419 21.9702 101.969 21.2109 101.647 20.3042C101.322 19.402 101.071 18.5042 100.895 17.6109C100.738 16.7846 100.983 16.3491 101.63 16.3045C102.316 16.2151 102.894 15.9807 103.364 15.601C103.834 15.2213 104.069 14.7189 104.069 14.0936C104.069 13.3789 103.766 13.0216 103.158 13.0216C102.766 13.0216 102.37 13.1824 101.971 13.504C101.567 13.83 101.195 14.2164 100.854 14.663C100.509 15.1097 100.229 15.5452 100.013 15.9695C99.7191 16.5501 99.4644 17.1196 99.2488 17.6779C99.0333 18.2362 98.8569 18.7945 98.7198 19.3529V20.6928C98.7198 21.5191 98.5101 22.2002 98.0908 22.7362C97.6675 23.2722 97.113 23.5402 96.4271 23.5402ZM114.857 23.5402C114.171 23.5402 113.553 23.5179 113.005 23.4732C112.456 23.4285 111.976 23.3615 111.565 23.2722C111.133 23.1829 110.787 23.06 110.524 22.9037C110.258 22.7474 110.046 22.5687 109.889 22.3677C109.772 22.2114 109.674 21.9993 109.595 21.7313C109.517 21.4633 109.478 21.2176 109.478 20.9943C109.478 20.2797 109.728 19.6767 110.23 19.1854C110.728 18.694 111.31 18.1916 111.976 17.6779L115.885 14.596C116.414 14.1271 116.679 13.7921 116.679 13.5911C116.679 13.0998 116.091 12.8541 114.915 12.8541C114.132 12.8541 113.504 12.9591 113.034 13.169C112.564 13.3834 112.241 13.6357 112.064 13.9261C111.947 14.0824 111.843 14.1985 111.753 14.2745C111.666 14.3548 111.545 14.395 111.388 14.395C111.094 14.395 110.794 14.2097 110.489 13.839C110.187 13.4727 110.036 12.9769 110.036 12.3516C110.036 11.6147 110.281 11.0452 110.771 10.6432C111.261 10.2412 111.902 9.95535 112.693 9.78562C113.489 9.62036 114.337 9.53773 115.239 9.53773C116.218 9.53773 117.055 9.59803 117.749 9.71862C118.446 9.84369 119.011 10.0625 119.442 10.3752C119.775 10.5985 120.024 10.9112 120.188 11.3132C120.357 11.7151 120.441 12.1395 120.441 12.5861C120.441 13.3454 120.104 14.0601 119.43 14.73C118.752 15.4 117.815 16.1481 116.62 16.9744L113.328 19.2524C113.132 19.3864 113.034 19.5427 113.034 19.7213C113.034 19.967 113.171 20.101 113.446 20.1233C113.642 20.1457 113.887 20.1613 114.181 20.1702C114.474 20.1836 114.798 20.1903 115.15 20.1903C116.738 20.1903 117.972 19.9558 118.854 19.4869C119.187 19.2859 119.422 19.1854 119.559 19.1854C119.775 19.1854 119.985 19.335 120.188 19.6342C120.396 19.938 120.5 20.3243 120.5 20.7933C120.5 21.8653 119.981 22.5911 118.942 22.9707C117.904 23.3504 116.542 23.5402 114.857 23.5402Z" fill="#233565"/>
</g>
</g>
</g>
</g>
<defs>
<clipPath id="clip0_6_505">
<rect width="120" height="24" fill="white" transform="translate(0.5)"/>
</clipPath>
<clipPath id="clip1_6_505">
<rect width="120" height="24" fill="white" transform="translate(0.5)"/>
</clipPath>
<clipPath id="clip2_6_505">
<rect width="120" height="24" fill="white" transform="translate(0.5)"/>
</clipPath>
<clipPath id="clip3_6_505">
<rect width="120" height="24" fill="white" transform="translate(0.5)"/>
</clipPath>
</defs>
</svg>
