<svg width="18" height="15" viewBox="0 0 18 15" fill="none" xmlns="http://www.w3.org/2000/svg">
<path d="M16.8889 1.00729C16.1973 1.49666 15.4315 1.87096 14.6211 2.11575C14.1861 1.61405 13.6081 1.25846 12.9651 1.09707C12.3221 0.935677 11.6452 0.976274 11.0259 1.21337C10.4067 1.45046 9.87499 1.87262 9.50271 2.42273C9.13043 2.97285 8.93556 3.62438 8.94444 4.28922V5.01371C7.67524 5.04672 6.41759 4.76435 5.28351 4.19174C4.14943 3.61913 3.17412 2.77405 2.44444 1.73177C2.44444 1.73177 -0.444445 8.25217 6.05556 11.1501C4.56816 12.1629 2.79628 12.6708 1 12.5991C7.5 16.2216 15.4444 12.5991 15.4444 4.26749C15.4438 4.06568 15.4244 3.86438 15.3867 3.66616C16.1238 2.93696 16.6439 2.01629 16.8889 1.00729V1.00729Z" stroke="black" stroke-linecap="round" stroke-linejoin="round"/>
</svg>
