<svg width="250" height="165" viewBox="0 0 250 165" fill="none" xmlns="http://www.w3.org/2000/svg">
<g clip-path="url(#clip0_29_7552)">
<path d="M210 0H40C17.9086 0 0 19.6995 0 44V121C0 145.301 17.9086 165 40 165H210C232.091 165 250 145.301 250 121V44C250 19.6995 232.091 0 210 0Z" fill="url(#paint0_linear_29_7552)"/>
<path d="M150.617 55C138.558 55 127.782 61.8508 127.782 74.5079C127.782 89.0236 146.894 90.0262 146.894 97.3187C146.894 100.389 143.684 103.138 138.201 103.138C136.154 103.138 134.243 102.872 132.538 102.48C128.549 101.564 123.743 103.709 122.961 107.726C122.462 110.286 123.762 112.849 126.26 113.598C129.065 114.439 133.091 115.314 137.71 115.314C150.893 115.314 161.268 108.127 161.268 95.2529C161.268 79.9145 142.076 78.9415 142.076 72.1732C142.076 69.7681 144.711 67.1325 150.178 67.1325C151.441 67.1325 152.656 67.2494 153.79 67.4356C157.701 68.0775 162.166 65.9447 162.934 62.0564C163.452 59.4301 162.101 56.802 159.509 56.1334C157.224 55.544 154.156 55 150.617 55ZM41.1807 55.9312C40.6691 55.9312 40.2336 56.3037 40.1543 56.8092C40.068 57.3591 40.4274 57.8811 40.9694 58.0083C42.6596 58.4052 46.2868 59.3502 49.6422 60.841C55.5255 63.1686 55.9445 64.5238 56.935 68.7329L66.2747 108.196C67.1288 111.805 70.3511 114.354 74.0597 114.354H76.6959C80.0136 114.354 82.987 112.306 84.17 109.206L101.032 65.0237C102.707 60.636 99.4666 55.9312 94.7702 55.9312C91.9453 55.9312 89.4237 57.7023 88.4652 60.3596L85.9781 67.2546C83.1931 74.9759 71.9748 73.9959 70.5707 65.9087L69.889 61.9828C69.3525 58.1295 66.637 55.9312 63.3125 55.9312H41.1807ZM115.869 55.9312C112.641 55.9312 109.865 58.2202 109.251 61.39L100.541 106.311C99.7325 110.481 102.927 114.354 107.175 114.354C110.412 114.354 113.195 112.057 113.809 108.879L122.489 63.9523C123.293 59.7926 120.106 55.9312 115.869 55.9312ZM187.108 55.9312C183.788 55.9312 182.028 57.8798 180.737 61.2843L163.972 105.388C162.327 109.717 165.524 114.354 170.156 114.354H170.366C173.127 114.354 175.569 112.564 176.401 109.931C177.233 107.299 179.675 105.509 182.436 105.509H190.887C193.501 105.509 195.746 107.364 196.24 109.931C196.733 112.498 198.979 114.354 201.592 114.354H202.263C206.191 114.354 209.15 110.779 208.416 106.92L199.952 62.4359C199.234 58.6619 195.935 55.9312 192.093 55.9312H187.108ZM183.7 87.8411C185.119 83.5127 191.365 83.9003 192.238 88.3709C192.771 91.1004 190.681 93.6381 187.9 93.6381C184.892 93.6381 182.763 90.6992 183.7 87.8411Z" fill="white"/>
</g>
<defs>
<linearGradient id="paint0_linear_29_7552" x1="347.075" y1="-165.04" x2="-43.3703" y2="177.825" gradientUnits="userSpaceOnUse">
<stop stop-color="#2253FF"/>
<stop offset="1" stop-color="#C6D2FF"/>
</linearGradient>
<clipPath id="clip0_29_7552">
<rect width="250" height="165" fill="white"/>
</clipPath>
</defs>
</svg>
