<svg width="388" height="256" viewBox="0 0 388 256" fill="none" xmlns="http://www.w3.org/2000/svg">
<g clip-path="url(#clip0_29_7485)">
<path d="M325.92 0H62.08C27.7942 0 0 30.564 0 68.2667V187.733C0 225.436 27.7942 256 62.08 256H325.92C360.206 256 388 225.436 388 187.733V68.2667C388 30.564 360.206 0 325.92 0Z" fill="url(#paint0_linear_29_7485)"/>
<path d="M233.757 85.333C215.042 85.333 198.318 95.9621 198.318 115.6C198.318 138.121 227.979 139.677 227.979 150.991C227.979 155.754 222.997 160.019 214.487 160.019C202.41 160.019 193.384 154.06 193.384 154.06L189.522 173.877C189.522 173.877 199.92 178.91 213.725 178.91C234.186 178.91 250.287 167.76 250.287 147.786C250.287 123.988 220.502 122.479 220.502 111.977C220.502 108.246 224.592 104.157 233.077 104.157C242.651 104.157 250.462 108.491 250.462 108.491L254.242 89.3505C254.242 89.3505 245.743 85.333 233.757 85.333ZM62.5333 86.7777L62.0801 89.6662C62.0801 89.6662 69.9535 91.2458 77.0448 94.3954C86.1757 98.0067 86.8259 100.109 88.3632 106.64L105.12 177.421H127.583L162.188 86.7777H139.777L117.541 148.406L108.468 96.1669C107.635 90.1885 103.421 86.7777 98.2611 86.7777H62.5333ZM171.2 86.7777L153.619 177.421H174.99L192.509 86.7777H171.2ZM290.392 86.7777C285.238 86.7777 282.508 89.8011 280.505 95.0832L249.195 177.421H271.606L275.943 163.698H303.245L305.882 177.421H325.656L308.405 86.7777H290.392ZM293.306 111.267L299.95 145.281H282.153L293.306 111.267Z" fill="white"/>
</g>
<defs>
<linearGradient id="paint0_linear_29_7485" x1="538.661" y1="-256.061" x2="-67.1458" y2="276.086" gradientUnits="userSpaceOnUse">
<stop stop-color="#2253FF"/>
<stop offset="1" stop-color="#C6D2FF"/>
</linearGradient>
<clipPath id="clip0_29_7485">
<rect width="388" height="256" fill="white"/>
</clipPath>
</defs>
</svg>
