<svg width="49" height="48" viewBox="0 0 49 48" fill="none" xmlns="http://www.w3.org/2000/svg">
<g clip-path="url('#clip0_6_490')">
<g clip-path="url('#clip1_6_490')">
<path d="M0.5 24C0.5 10.7451 11.2451 0 24.5 0C37.7549 0 48.5 10.7451 48.5 24C48.5 37.2549 37.7549 48 24.5 48C11.2451 48 0.5 37.2549 0.5 24ZM24.5 46.1945C36.7577 46.1945 46.6945 36.2577 46.6945 24C46.6945 11.7423 36.7577 1.80546 24.5 1.80546C12.2423 1.80546 2.30546 11.7423 2.30546 24C2.30546 36.2577 12.2423 46.1945 24.5 46.1945Z" fill="#8BD8BC"></path>
<g clip-path="url('#clip2_6_490')">
<g clip-path="url('#clip3_6_490')">
<path d="M32.6367 33.8472C32.4915 35.2819 31.3386 36.3126 30.0604 36.1494L19.1839 34.7578C17.9066 34.5937 16.989 33.2988 17.1343 31.864L19.0352 13.1175C19.1814 11.6827 20.3339 10.6524 21.6124 10.8159L32.4886 12.2072C33.7666 12.371 34.6838 13.6662 34.538 15.101L32.6367 33.8472Z" fill="#8BD8BC"></path>
<path d="M17.7991 35.6797C16.5218 35.5162 15.6039 34.2206 15.7491 32.7859L17.6504 14.0397C17.683 13.7153 17.7713 13.3989 17.9115 13.1045H16.7753C15.4892 13.1045 14.4473 14.275 14.4473 15.7192V34.5857C14.4473 36.0303 15.4892 37.2007 16.7753 37.2007H27.7224C27.9952 37.2007 28.2557 37.145 28.4995 37.0483L17.7991 35.6797Z" fill="#8BD8BC"></path>
</g>
</g>
</g>
</g>
<defs>
<clipPath id="clip0_6_490">
<rect width="48" height="48" fill="white" transform="translate(0.5)"></rect>
</clipPath>
<clipPath id="clip1_6_490">
<rect width="48" height="48" fill="white" transform="translate(0.5)"></rect>
</clipPath>
<clipPath id="clip2_6_490">
<rect width="20.1061" height="26.402" fill="white" transform="translate(14.4473 10.7988)"></rect>
</clipPath>
<clipPath id="clip3_6_490">
<rect width="20.1061" height="26.402" fill="white" transform="translate(14.4473 10.7988)"></rect>
</clipPath>
</defs>
</svg>
