<svg width="120" height="25" viewBox="0 0 120 25" fill="none" xmlns="http://www.w3.org/2000/svg">
<g clip-path="url('#clip0_2002_138')">
<g clip-path="url('#clip1_2002_138')">
<g clip-path="url('#clip2_2002_138')">
<g clip-path="url('#clip3_2002_138')">
<path d="M6.93676 23.9226C5.54549 23.9226 4.32666 23.5653 3.28026 22.8507C2.22995 22.136 1.42066 21.1199 0.852398 19.8023C0.284133 18.4847 0 16.9214 0 15.1125C0 13.3929 0.244942 11.7403 0.734826 10.1546C1.22471 8.56904 1.93014 7.15093 2.85112 5.90031C3.77211 4.64969 4.87924 3.6559 6.17254 2.91892C7.46583 2.18195 8.92569 1.81347 10.5521 1.81347C11.767 1.81347 12.7664 2.02562 13.5502 2.44994C14.334 2.87426 14.7259 3.49957 14.7259 4.32587C14.7259 4.72785 14.6338 5.12314 14.4496 5.51172C14.2615 5.90478 14.0205 6.2353 13.7265 6.50329C13.4326 6.77128 13.1289 6.90527 12.8154 6.90527C12.6194 6.90527 12.4626 6.84944 12.3451 6.73778C11.816 6.33579 11.2967 6.03877 10.7872 5.84671C10.2778 5.65912 9.68991 5.56532 9.02366 5.56532C7.63239 5.56532 6.45667 5.92711 5.4965 6.65068C4.53633 7.37872 3.80738 8.33455 3.30966 9.51817C2.80801 10.7018 2.55719 11.9859 2.55719 13.3705C2.55719 14.7105 2.78254 15.8941 3.23323 16.9214C3.68393 17.9487 4.31098 18.7527 5.11439 19.3333C5.9178 19.9139 6.85838 20.2043 7.93612 20.2043C8.79832 20.2043 9.637 20.0077 10.4522 19.6147C11.2634 19.2261 11.9826 18.6857 12.6096 17.9933C12.8839 17.703 13.1583 17.5579 13.4326 17.5579C13.6678 17.5579 13.8343 17.6695 13.9323 17.8929C14.0303 18.1162 14.0793 18.3395 14.0793 18.5628C14.0793 18.9425 13.9813 19.3713 13.7853 19.8492C13.5894 20.3316 13.2857 20.8072 12.8742 21.2762C12.1491 22.1025 11.2575 22.7502 10.1994 23.2192C9.14124 23.6881 8.05369 23.9226 6.93676 23.9226ZM20.1048 23.9226C18.9291 23.9226 17.9827 23.5028 17.2655 22.6631C16.5522 21.8278 16.1956 20.6286 16.1956 19.0653C16.1956 17.9487 16.3856 16.8365 16.7658 15.7288C17.1499 14.6256 17.7044 13.6273 18.4294 12.7341C19.1545 11.8408 20.0265 11.1261 21.0454 10.5901C22.0644 10.0542 23.2107 9.78616 24.4844 9.78616C25.6601 9.78616 26.6634 10.014 27.4942 10.4695C28.329 10.9296 28.7464 11.5504 28.7464 12.3321C28.7464 12.5331 28.7268 12.7943 28.6876 13.1159C28.6484 13.442 28.5994 13.7055 28.5406 13.9065C28.4819 14.0852 28.3976 14.246 28.2879 14.3889C28.182 14.5363 28.041 14.61 27.8646 14.61C27.7862 14.61 27.6393 14.5765 27.4237 14.5095C27.3453 14.9785 27.2865 15.4363 27.2473 15.8829C27.2082 16.3296 27.1886 16.7762 27.1886 17.2229C27.1886 18.0715 27.3003 18.8241 27.5236 19.4807C27.7509 20.1417 28.1977 20.5504 28.864 20.7067C29.0403 20.7514 29.1814 20.8184 29.2872 20.9077C29.397 20.9971 29.4518 21.1869 29.4518 21.4772C29.4518 21.7229 29.397 22.0355 29.2872 22.4152C29.1814 22.7948 28.9757 23.1343 28.67 23.4335C28.3682 23.7373 27.9332 23.8891 27.3649 23.8891C26.6007 23.8891 26.0128 23.5698 25.6013 22.9311C25.1898 22.2968 24.9841 21.3879 24.9841 20.2043C24.455 21.2986 23.7829 22.1919 22.9677 22.8842C22.1565 23.5765 21.2022 23.9226 20.1048 23.9226ZM21.0454 20.4388C21.8292 20.4388 22.519 20.1596 23.1147 19.6013C23.7143 19.043 24.1807 18.3395 24.5138 17.4909C24.7293 16.9549 24.8959 16.3675 25.0135 15.7288C25.131 15.0946 25.2094 14.4648 25.2486 13.8395C24.9155 13.6608 24.5334 13.5157 24.1023 13.404C23.6712 13.2924 23.2205 13.2365 22.7502 13.2365C21.5549 13.2365 20.5692 13.6385 19.7933 14.4425C19.0212 15.2465 18.6352 16.2514 18.6352 17.4574C18.6352 18.3507 18.8507 19.0698 19.2818 19.6147C19.7129 20.1641 20.3008 20.4388 21.0454 20.4388ZM33.0378 23.8556C32.7243 23.8556 32.4734 23.7953 32.2853 23.6747C32.1011 23.5497 32.0365 23.342 32.0913 23.0517C32.3108 22.0914 32.493 21.1132 32.638 20.1172C32.787 19.1256 32.8614 18.172 32.8614 17.2564C32.8614 16.0728 32.7968 15.2063 32.6674 14.6569C32.542 14.112 32.3715 13.7323 32.156 13.5179C31.9404 13.308 31.6739 13.1472 31.3565 13.0355C31.2232 12.9685 31.1018 12.8792 30.992 12.7675C30.8862 12.6559 30.8333 12.4996 30.8333 12.2986C30.8333 11.9859 30.9411 11.6398 31.1566 11.2601C31.3722 10.8805 31.6759 10.5499 32.0678 10.2685C32.4597 9.99162 32.9084 9.85316 33.414 9.85316C34.0842 9.85316 34.5505 10.1144 34.8131 10.637C35.0796 11.1641 35.2129 11.8519 35.2129 12.7006C35.5656 11.8073 36.0006 11.0971 36.5179 10.57C37.0392 10.0475 37.6917 9.78616 38.4755 9.78616C39.0046 9.78616 39.4455 9.92016 39.7982 10.1881C40.147 10.4561 40.3214 10.8916 40.3214 11.4946C40.3214 12.0976 40.1509 12.6604 39.8099 13.1829C39.4651 13.71 39.1182 13.9735 38.7694 13.9735C38.7106 13.9735 38.6401 13.9623 38.5578 13.94C38.4833 13.9177 38.4167 13.8618 38.3579 13.7725C38.0993 13.4152 37.7857 13.2365 37.4173 13.2365C36.8491 13.2365 36.3474 13.6608 35.9124 14.5095C35.4852 15.3581 35.2521 16.5306 35.2129 18.0268C35.2325 18.5852 35.2462 19.1546 35.254 19.7353C35.2658 20.3159 35.2716 20.7402 35.2716 21.0082C35.2716 21.8345 35.0698 22.5157 34.6661 23.0517C34.2664 23.5876 33.7236 23.8556 33.0378 23.8556ZM45.2006 23.9226C44.0249 23.9226 43.1 23.476 42.4259 22.5827C41.7479 21.6894 41.4089 20.4723 41.4089 18.9313C41.4089 17.7924 41.5716 16.6757 41.8968 15.5814C42.2182 14.4872 42.6728 13.5045 43.2607 12.6336C43.8485 11.7626 44.5344 11.0703 45.3182 10.5566C46.102 10.043 46.9544 9.78616 47.8754 9.78616C48.4632 9.78616 48.9884 9.88666 49.4508 10.0877C49.9094 10.2886 50.315 10.5455 50.6677 10.8581C50.6481 9.33951 50.5795 7.97723 50.462 6.77128C50.3444 5.56532 50.0603 4.4487 49.6096 3.4214C49.5312 3.24274 49.4685 3.07972 49.4215 2.93232C49.3705 2.7894 49.345 2.65093 49.345 2.51694C49.345 2.20428 49.4587 1.91396 49.686 1.64597C49.9094 1.37798 50.1876 1.15466 50.5208 0.975999C50.8539 0.797339 51.1674 0.708008 51.4613 0.708008C51.9904 0.708008 52.3882 0.969297 52.6547 1.49188C52.9173 2.01892 53.0877 2.73356 53.1661 3.6358C53.2445 4.5425 53.2837 5.57649 53.2837 6.73778C53.2837 8.43505 53.2151 9.96482 53.0779 11.3271C52.9408 12.6894 52.8134 13.8842 52.6958 14.9115C52.6175 15.5814 52.5489 16.1621 52.4901 16.6534C52.4313 17.1447 52.4019 17.5467 52.4019 17.8594C52.4019 19.445 52.9996 20.3829 54.1949 20.6732C54.5084 20.7402 54.6652 20.9747 54.6652 21.3767C54.6652 21.6224 54.6025 21.935 54.4771 22.3147C54.3477 22.6943 54.1165 23.0338 53.7834 23.333C53.4503 23.6368 52.9702 23.7886 52.3431 23.7886C51.5005 23.7886 50.9323 23.4648 50.6383 22.8172C50.3444 22.1695 50.1974 21.1869 50.1974 19.8693C49.6488 21.0082 48.9531 21.9685 48.1105 22.7502C47.2679 23.5318 46.298 23.9226 45.2006 23.9226ZM46.1118 20.3383C46.6605 20.3383 47.2091 20.1373 47.7578 19.7353C48.3065 19.3333 48.7964 18.7862 49.2275 18.0938C49.4822 17.6695 49.7134 17.1827 49.9211 16.6333C50.1249 16.0884 50.315 15.5368 50.4914 14.9785C49.492 13.9512 48.3849 13.4375 47.1699 13.4375C46.1118 13.4375 45.2692 13.7993 44.6421 14.5229C44.0151 15.2509 43.7016 16.1509 43.7016 17.2229C43.7016 18.1385 43.9367 18.8867 44.407 19.4673C44.8773 20.0479 45.4456 20.3383 46.1118 20.3383ZM58.7508 23.8221C58.5157 23.8221 58.2766 23.7775 58.0336 23.6881C57.7867 23.5988 57.5849 23.3866 57.4281 23.0517C57.2714 22.7167 57.193 22.203 57.193 21.5107C57.193 20.9524 57.238 20.2422 57.3282 19.3802C57.4144 18.5226 57.5261 17.6025 57.6633 16.6199C57.8004 15.6149 57.9141 14.5541 58.0042 13.4375C58.0904 12.3209 58.1335 11.1931 58.1335 10.0542C58.1335 9.6075 58.1238 9.12735 58.1042 8.61371C58.0846 8.10006 58.0454 7.59758 57.9866 7.10626C57.8494 7.19559 57.7181 7.26706 57.5927 7.32066C57.4634 7.37872 57.3399 7.40775 57.2224 7.40775C56.8892 7.40775 56.7227 7.03927 56.7227 6.3023C56.7227 5.63232 56.8559 5.06731 57.1224 4.60726C57.385 4.15168 57.869 3.71173 58.5744 3.28741C59.2603 2.86309 60.0696 2.51024 61.0023 2.22885C61.9311 1.95193 62.8756 1.81347 63.8358 1.81347C65.7365 1.81347 67.2611 2.38294 68.4094 3.5219C69.5537 4.66086 70.1259 6.17947 70.1259 8.07773C70.1259 9.23902 69.9202 10.311 69.5087 11.2936C69.0972 12.2762 68.5544 13.1293 67.8803 13.8529C67.2023 14.5809 66.4675 15.1393 65.6758 15.5278C64.8802 15.9209 64.1003 16.1174 63.3361 16.1174C62.6111 16.1174 62.1212 15.9321 61.8665 15.5613C61.6117 15.1951 61.4844 14.6658 61.4844 13.9735C61.4844 13.6385 61.5196 13.3303 61.5902 13.0489C61.6568 12.772 61.8077 12.6336 62.0428 12.6336C62.1016 12.6336 62.1898 12.6447 62.3074 12.6671C62.4249 12.6894 62.5425 12.7229 62.6601 12.7675C62.7776 12.7899 62.9442 12.8234 63.1598 12.868C63.3753 12.9127 63.6203 12.935 63.8946 12.935C64.9723 12.935 65.8502 12.5889 66.5282 11.8966C67.2023 11.2043 67.5393 10.311 67.5393 9.21668C67.5393 8.07773 67.167 7.18443 66.4224 6.53679C65.6778 5.88914 64.7176 5.56532 63.5419 5.56532C63.1108 5.56532 62.6699 5.60329 62.2192 5.67922C61.7685 5.75962 61.3178 5.86681 60.8671 6.00081C60.8083 7.47475 60.6711 9.14969 60.4556 11.0256C60.338 12.1422 60.2342 13.241 60.144 14.3219C60.0578 15.4072 60.0147 16.3966 60.0147 17.2899C60.0147 18.0715 60.0794 18.7571 60.2087 19.3467C60.3341 19.9407 60.5928 20.4499 60.9847 20.8742C61.259 21.1869 61.3962 21.5219 61.3962 21.8792C61.3962 22.3705 61.1512 22.8172 60.6614 23.2192C60.1715 23.6211 59.5346 23.8221 58.7508 23.8221ZM76.3866 23.9226C74.8974 23.9226 73.7354 23.4358 72.9006 22.4621C72.0698 21.4929 71.6544 20.1373 71.6544 18.3953C71.6544 16.8097 71.9581 15.3693 72.5655 14.074C73.173 12.7787 73.9901 11.7447 75.0169 10.972C76.0476 10.2038 77.1802 9.81966 78.4147 9.81966C79.5905 9.81966 80.531 10.1479 81.2365 10.8045C81.9419 11.4656 82.2946 12.3432 82.2946 13.4375C82.2946 14.3085 82.0595 15.1125 81.5892 15.8494C81.1189 16.5864 80.4919 17.1715 79.708 17.6048C78.9242 18.0425 78.0522 18.2613 77.0921 18.2613C75.9163 18.2613 74.9562 17.9599 74.2115 17.3569C74.2311 18.3842 74.5388 19.2105 75.1345 19.8358C75.7341 20.4611 76.5042 20.7737 77.4448 20.7737C78.013 20.7737 78.595 20.6554 79.1907 20.4187C79.7903 20.1864 80.3057 19.8693 80.7368 19.4673C81.0111 19.1993 81.2659 19.0653 81.501 19.0653C81.697 19.0653 81.8577 19.1368 81.9831 19.2797C82.1124 19.4271 82.1771 19.6125 82.1771 19.8358C82.1771 20.3271 81.8047 20.9747 81.0601 21.7787C79.7472 23.208 78.1894 23.9226 76.3866 23.9226ZM76.8275 16.0504C77.533 16.0504 78.1208 15.8829 78.5911 15.5479C79.0614 15.213 79.2965 14.7886 79.2965 14.275C79.2965 13.8507 79.1398 13.5202 78.8262 13.2834C78.5127 13.0512 78.0816 12.935 77.533 12.935C76.8079 12.935 76.175 13.1517 75.6342 13.5849C75.0973 14.0226 74.7112 14.6323 74.4761 15.4139C74.7504 15.6149 75.1031 15.7713 75.5342 15.8829C75.9653 15.9946 76.3964 16.0504 76.8275 16.0504ZM86.3215 23.8556C86.004 23.8556 85.7532 23.7953 85.569 23.6747C85.3848 23.5497 85.3221 23.342 85.3809 23.0517C85.5925 22.0914 85.7728 21.1132 85.9217 20.1172C86.0667 19.1256 86.1392 18.172 86.1392 17.2564C86.1392 16.0728 86.0765 15.2063 85.9511 14.6569C85.8218 14.112 85.6513 13.7323 85.4397 13.5179C85.2202 13.308 84.9557 13.1472 84.6461 13.0355C84.505 12.9685 84.3815 12.8792 84.2757 12.7675C84.1699 12.6559 84.117 12.4996 84.117 12.2986C84.117 11.9859 84.2228 11.6398 84.4344 11.2601C84.6539 10.8805 84.9596 10.5499 85.3515 10.2685C85.7434 9.99162 86.1941 9.85316 86.7036 9.85316C87.3698 9.85316 87.8342 10.1144 88.0968 10.637C88.3594 11.1641 88.4907 11.8519 88.4907 12.7006C88.8473 11.8073 89.2843 11.0971 89.8016 10.57C90.3228 10.0475 90.9754 9.78616 91.7592 9.78616C92.2883 9.78616 92.7292 9.92016 93.0819 10.1881C93.4346 10.4561 93.611 10.8916 93.611 11.4946C93.611 12.0976 93.4385 12.6604 93.0936 13.1829C92.7527 13.71 92.4058 13.9735 92.0531 13.9735C91.9943 13.9735 91.9258 13.9623 91.8474 13.94C91.7651 13.9177 91.6945 13.8618 91.6357 13.7725C91.3849 13.4152 91.0714 13.2365 90.6952 13.2365C90.1308 13.2365 89.6331 13.6608 89.202 14.5095C88.767 15.3581 88.5299 16.5306 88.4907 18.0268C88.5142 18.5852 88.5299 19.1546 88.5377 19.7353C88.5455 20.3159 88.5495 20.7402 88.5495 21.0082C88.5495 21.8345 88.3496 22.5157 87.9499 23.0517C87.5501 23.5876 87.0073 23.8556 86.3215 23.8556ZM95.9271 23.8556C95.7116 23.8556 95.5058 23.7842 95.3099 23.6412C95.1139 23.4938 95.0355 23.2973 95.0747 23.0517C95.3687 21.2651 95.6195 19.4494 95.8272 17.6048C96.031 15.7646 96.1329 13.9065 96.1329 12.0306C96.1329 10.378 96.0839 8.8817 95.9859 7.54175C95.8879 6.2018 95.5744 4.91768 95.0453 3.68939C94.9473 3.44374 94.869 3.23158 94.8102 3.05292C94.7514 2.87426 94.722 2.70677 94.722 2.55044C94.722 2.12612 94.9376 1.71297 95.3687 1.31099C95.7997 0.909001 96.2602 0.708008 96.7501 0.708008C97.4556 0.708008 97.9356 1.19932 98.1904 2.18195C98.4451 3.16458 98.5725 4.61619 98.5725 6.53679C98.5725 8.83703 98.4549 10.8425 98.2198 12.5532C97.9846 14.2594 97.7789 15.5591 97.6025 16.4524L97.7201 16.5194C98.112 15.4251 98.6117 14.3688 99.2191 13.3504C99.8266 12.3365 100.528 11.4946 101.324 10.8246C102.115 10.1546 102.981 9.81966 103.922 9.81966C104.843 9.81966 105.554 10.1323 106.056 10.7576C106.554 11.3829 106.803 12.1311 106.803 13.002C106.803 14.0293 106.479 14.945 105.833 15.7489C105.186 16.5529 104.343 17.2229 103.305 17.7589C103.56 18.5182 103.922 19.1144 104.392 19.5477C104.863 19.9854 105.46 20.2043 106.185 20.2043C106.42 20.2043 106.616 20.1819 106.773 20.1373C107.028 20.0703 107.155 20.3494 107.155 20.9747C107.155 21.3321 107.096 21.734 106.979 22.1807C106.861 22.6273 106.632 23.0115 106.291 23.333C105.946 23.6591 105.431 23.8221 104.745 23.8221C103.824 23.8221 103.076 23.5139 102.499 22.8976C101.919 22.2857 101.469 21.5263 101.147 20.6196C100.822 19.7174 100.571 18.8197 100.395 17.9264C100.238 17.1001 100.483 16.6646 101.13 16.6199C101.816 16.5306 102.394 16.2961 102.864 15.9164C103.334 15.5368 103.569 15.0343 103.569 14.409C103.569 13.6943 103.266 13.337 102.658 13.337C102.266 13.337 101.87 13.4978 101.471 13.8194C101.067 14.1455 100.695 14.5318 100.354 14.9785C100.009 15.4251 99.7286 15.8606 99.5131 16.2849C99.2191 16.8656 98.9644 17.435 98.7488 17.9933C98.5333 18.5517 98.3569 19.11 98.2198 19.6683V21.0082C98.2198 21.8345 98.0101 22.5157 97.5908 23.0517C97.1675 23.5876 96.613 23.8556 95.9271 23.8556ZM114.357 23.8556C113.671 23.8556 113.053 23.8333 112.505 23.7886C111.956 23.744 111.476 23.677 111.065 23.5876C110.633 23.4983 110.287 23.3755 110.024 23.2192C109.758 23.0628 109.546 22.8842 109.389 22.6832C109.272 22.5268 109.174 22.3147 109.095 22.0467C109.017 21.7787 108.978 21.533 108.978 21.3097C108.978 20.5951 109.228 19.9921 109.73 19.5008C110.228 19.0095 110.81 18.507 111.476 17.9933L115.385 14.9115C115.914 14.4425 116.179 14.1075 116.179 13.9065C116.179 13.4152 115.591 13.1695 114.415 13.1695C113.632 13.1695 113.004 13.2745 112.534 13.4844C112.064 13.6988 111.741 13.9512 111.564 14.2415C111.447 14.3978 111.343 14.514 111.253 14.5899C111.166 14.6703 111.045 14.7105 110.888 14.7105C110.594 14.7105 110.294 14.5251 109.989 14.1544C109.687 13.7881 109.536 13.2924 109.536 12.6671C109.536 11.9301 109.781 11.3606 110.271 10.9586C110.761 10.5566 111.402 10.2708 112.193 10.1011C112.989 9.93579 113.837 9.85316 114.739 9.85316C115.718 9.85316 116.555 9.91346 117.249 10.0341C117.946 10.1591 118.511 10.378 118.942 10.6906C119.275 10.914 119.524 11.2266 119.688 11.6286C119.857 12.0306 119.941 12.4549 119.941 12.9015C119.941 13.6608 119.604 14.3755 118.93 15.0455C118.252 15.7154 117.315 16.4636 116.12 17.2899L112.828 19.5678C112.632 19.7018 112.534 19.8581 112.534 20.0368C112.534 20.2824 112.671 20.4164 112.946 20.4388C113.142 20.4611 113.387 20.4767 113.681 20.4857C113.974 20.4991 114.298 20.5058 114.65 20.5058C116.238 20.5058 117.472 20.2713 118.354 19.8023C118.687 19.6013 118.922 19.5008 119.059 19.5008C119.275 19.5008 119.485 19.6504 119.688 19.9497C119.896 20.2534 120 20.6397 120 21.1087C120 22.1807 119.481 22.9065 118.442 23.2861C117.404 23.6658 116.042 23.8556 114.357 23.8556Z" fill="white"></path>
</g>
</g>
</g>
</g>
<defs>
<clipPath id="clip0_2002_138">
<rect width="120" height="24" fill="white" transform="translate(0 0.31543)"></rect>
</clipPath>
<clipPath id="clip1_2002_138">
<rect width="120" height="24" fill="white" transform="translate(0 0.31543)"></rect>
</clipPath>
<clipPath id="clip2_2002_138">
<rect width="120" height="24" fill="white" transform="translate(0 0.31543)"></rect>
</clipPath>
<clipPath id="clip3_2002_138">
<rect width="120" height="24" fill="white" transform="translate(0 0.31543)"></rect>
</clipPath>
</defs>
</svg>
