<svg width="18" height="14" viewBox="0 0 18 14" fill="none" xmlns="http://www.w3.org/2000/svg">
<path d="M16.8889 1.12725C16.1973 1.55747 15.4315 1.88652 14.6211 2.10173C14.1862 1.66068 13.6081 1.34807 12.9651 1.20618C12.3221 1.0643 11.6452 1.09999 11.026 1.30843C10.4067 1.51686 9.875 1.88798 9.50272 2.3716C9.13045 2.85522 8.93557 3.428 8.94446 4.01247V4.64939C7.67525 4.67841 6.4176 4.43017 5.28351 3.92677C4.14943 3.42338 3.17412 2.68045 2.44445 1.76417C2.44445 1.76417 -0.444447 7.49639 6.05556 10.044C4.56816 10.9344 2.79628 11.3809 1 11.3179C7.50001 14.5024 15.4445 11.3179 15.4445 3.99337C15.4438 3.81596 15.4245 3.63898 15.3867 3.46473C16.1238 2.82367 16.644 2.01429 16.8889 1.12725V1.12725Z" stroke="black" stroke-linecap="round" stroke-linejoin="round"></path>
</svg>
